#N canvas 175 30 531 527 10;
#X declare -path helpers;
#X obj 91 274 +~;
#X obj 90 303 *~ 0.5;
#X obj 113 374 *~;
#X obj 106 93 catch~ \$0-fbdk;
#X obj 115 246 e_freqshift-xnor;
#X obj 92 181 +~;
#N canvas 39 50 698 670 allpass 0;
#X obj 102 121 allpass~;
#X msg 189 68 -0.5;
#X obj 103 141 allpass~;
#X obj 102 162 allpass~;
#X obj 103 182 allpass~;
#X obj 104 204 allpass~;
#X obj 105 224 allpass~;
#X obj 104 245 allpass~;
#X obj 105 265 allpass~;
#X obj 103 288 allpass~;
#X obj 104 308 allpass~;
#X obj 103 329 allpass~;
#X obj 104 349 allpass~;
#X obj 105 371 allpass~;
#X obj 106 391 allpass~;
#X obj 105 412 allpass~;
#X obj 104 434 allpass~;
#X obj 189 43 loadbang;
#X obj 247 118 allpass~;
#X msg 334 65 -0.5;
#X obj 248 138 allpass~;
#X obj 247 159 allpass~;
#X obj 248 179 allpass~;
#X obj 249 201 allpass~;
#X obj 250 221 allpass~;
#X obj 249 242 allpass~;
#X obj 250 262 allpass~;
#X obj 248 285 allpass~;
#X obj 249 305 allpass~;
#X obj 248 326 allpass~;
#X obj 249 346 allpass~;
#X obj 250 368 allpass~;
#X obj 251 388 allpass~;
#X obj 250 409 allpass~;
#X obj 249 431 allpass~;
#X obj 334 40 loadbang;
#X obj 83 42 inlet~;
#X obj 249 462 outlet~;
#X connect 0 0 2 0;
#X connect 1 0 0 1;
#X connect 1 0 2 1;
#X connect 1 0 3 1;
#X connect 1 0 4 1;
#X connect 1 0 5 1;
#X connect 1 0 6 1;
#X connect 1 0 7 1;
#X connect 1 0 8 1;
#X connect 1 0 9 1;
#X connect 1 0 10 1;
#X connect 1 0 11 1;
#X connect 1 0 12 1;
#X connect 1 0 13 1;
#X connect 1 0 14 1;
#X connect 1 0 15 1;
#X connect 1 0 16 1;
#X connect 2 0 3 0;
#X connect 3 0 4 0;
#X connect 4 0 5 0;
#X connect 5 0 6 0;
#X connect 6 0 7 0;
#X connect 7 0 8 0;
#X connect 8 0 9 0;
#X connect 9 0 10 0;
#X connect 10 0 11 0;
#X connect 11 0 12 0;
#X connect 12 0 13 0;
#X connect 13 0 14 0;
#X connect 14 0 15 0;
#X connect 15 0 16 0;
#X connect 16 0 18 0;
#X connect 17 0 1 0;
#X connect 18 0 20 0;
#X connect 19 0 18 1;
#X connect 19 0 20 1;
#X connect 19 0 21 1;
#X connect 19 0 22 1;
#X connect 19 0 23 1;
#X connect 19 0 24 1;
#X connect 19 0 25 1;
#X connect 19 0 26 1;
#X connect 19 0 27 1;
#X connect 19 0 28 1;
#X connect 19 0 29 1;
#X connect 19 0 30 1;
#X connect 19 0 31 1;
#X connect 19 0 32 1;
#X connect 19 0 33 1;
#X connect 19 0 34 1;
#X connect 20 0 21 0;
#X connect 21 0 22 0;
#X connect 22 0 23 0;
#X connect 23 0 24 0;
#X connect 24 0 25 0;
#X connect 25 0 26 0;
#X connect 26 0 27 0;
#X connect 27 0 28 0;
#X connect 28 0 29 0;
#X connect 29 0 30 0;
#X connect 30 0 31 0;
#X connect 31 0 32 0;
#X connect 32 0 33 0;
#X connect 33 0 34 0;
#X connect 34 0 37 0;
#X connect 35 0 19 0;
#X connect 36 0 0 0;
#X restore 114 219 pd allpass;
#X obj 92 60 inlet~;
#X obj 208 61 inlet;
#X obj 315 63 inlet;
#X text 312 44 feedback 0..1;
#X text 204 42 frequency;
#X text 94 40 audio;
#X obj 90 421 outlet~;
#X obj 113 398 throw~ \$0-fbdk;
#X obj 128 334 r \$0-fbdk-amt;
#X obj 315 139 s \$0-fbdk-amt;
#X text 36 465 single side band implementation from here: http://www.ntnu.edu/documents/1001201110/1266017954/DAFx-15_submission_67.pdf
, f 81;
#X text 36 452 implemented by alex norman;
#X msg 229 203 0.05;
#X obj 229 178 loadbang;
#X obj 333 90 loadbang;
#X msg 333 111 0;
#X obj 344 254 declare -path helpers;
#X connect 0 0 1 0;
#X connect 1 0 2 0;
#X connect 1 0 13 0;
#X connect 2 0 14 0;
#X connect 3 0 5 1;
#X connect 4 0 0 1;
#X connect 5 0 0 0;
#X connect 5 0 6 0;
#X connect 6 0 4 0;
#X connect 7 0 5 0;
#X connect 8 0 4 1;
#X connect 9 0 16 0;
#X connect 15 0 2 1;
#X connect 19 0 4 1;
#X connect 20 0 19 0;
#X connect 21 0 22 0;
#X connect 22 0 16 0;
