#N canvas 446 169 525 459 10;
#X obj 80 111 *~;
#X obj 80 397 dac~;
#X obj 81 374 *~;
#X obj 99 350 hsl 128 15 0.01 1 1 0 empty empty volume -2 -8 0 10 -258113
-1 -1 11700 1;
#X obj 95 89 tgl 15 0 empty empty sample 17 7 0 10 -257985 -1 -1 0
1;
#X obj 290 97 table sampledude;
#X obj 80 47 tabplay~ sampledude;
#X obj 216 47 openpanel;
#X obj 216 96 soundfiler;
#X floatatom 216 118 0 0 0 0 - - -;
#X msg 216 71 read -resize \$1 sampledude;
#X obj 216 22 bng 15 250 50 0 empty empty empty 17 7 0 10 -262144 -1
-1;
#X msg 80 18 bang;
#X obj 140 250 hsl 128 15 0.01 0.85 1 0 empty empty fbdk -2 -8 0 10
-4034 -1 -1 0 1;
#X obj 111 187 hsl 128 15 -0.2 0.2 0 0 empty empty speed -2 -8 0 10
-4034 -1 -1 7937 1;
#X floatatom 116 208 5 0 0 0 - - -, f 5;
#N canvas 0 50 453 283 pink 0;
#X text 27 150 signal-out;
#X obj 29 129 outlet~;
#X obj 29 49 noise~;
#X text 14 7 pink~;
#X text 65 8 pink-noise-generator with -3 dB per oktave;
#X obj 29 88 biquad~ 1.83221 -0.836851 0.271264 -0.456311 0.18969;
#X obj 29 108 biquad~ 0.273097 0.087865 0.505803 0.171365 -0.03813
;
#X obj 29 68 biquad~ 1.98893 -0.988954 1.00554 -1.9889 0.983444;
#X text 166 195 IEM KUG;
#X text 150 183 musil;
#X text 180 183 @;
#X text 186 183 iem.at;
#X text 101 172 (c) Thomas Musil 2000 - 2005;
#X text 149 205 Graz \, Austria;
#X connect 2 0 7 0;
#X connect 5 0 6 0;
#X connect 6 0 1 0;
#X connect 7 0 5 0;
#X restore 11 47 pd pink;
#X msg 93 153 0.05;
#X obj 93 132 loadbang;
#X obj 80 274 e_shepard~;
#X obj 12 111 *~;
#X obj 27 89 tgl 15 0 empty empty noise 17 7 0 10 -257985 -1 -1 1 1
;
#X obj 12 147 +~;
#X floatatom 169 273 5 0 0 0 - - -, f 5;
#X text 250 185 <- negative goes down;
#X msg 90 314 0.8;
#X obj 90 294 loadbang;
#X connect 0 0 22 1;
#X connect 2 0 1 0;
#X connect 2 0 1 1;
#X connect 3 0 2 1;
#X connect 4 0 0 1;
#X connect 6 0 0 0;
#X connect 6 1 12 0;
#X connect 7 0 10 0;
#X connect 8 0 9 0;
#X connect 8 0 12 0;
#X connect 10 0 8 0;
#X connect 11 0 7 0;
#X connect 12 0 6 0;
#X connect 13 0 19 2;
#X connect 13 0 23 0;
#X connect 14 0 15 0;
#X connect 14 0 19 1;
#X connect 16 0 20 0;
#X connect 17 0 14 0;
#X connect 18 0 17 0;
#X connect 19 0 2 0;
#X connect 20 0 22 0;
#X connect 21 0 20 1;
#X connect 22 0 19 0;
#X connect 25 0 3 0;
#X connect 26 0 25 0;
